<mxfile host="app.diagrams.net" modified="2023-08-24T20:52:32.122Z" agent="Mozilla/5.0 (Windows NT 10.0; Win64; x64) AppleWebKit/537.36 (KHTML, like Gecko) Chrome/116.0.0.0 Safari/537.36" version="21.6.9" etag="Yl8ay1z3Y7AKQ0bKqe5I" type="github">
  <diagram name="PÃ¡gina-1" id="-HR349iyKf7iJuZ-J57L">
    <mxGraphModel>
      <root>
        <mxCell id="0" />
        <mxCell id="1" parent="0" />
      </root>
    </mxGraphModel>
  </diagram>
</mxfile>
